<?xml version="1.0" standalone="no"?>
<!DOCTYPE svg PUBLIC "-//W3C//DTD SVG 20010904//EN"
 "http://www.w3.org/TR/2001/REC-SVG-20010904/DTD/svg10.dtd">
<svg version="1.0" xmlns="http://www.w3.org/2000/svg"
 width="1080.000000pt" height="1080.000000pt" viewBox="0 0 1080.000000 1080.000000"
 preserveAspectRatio="xMidYMid meet">
<metadata>
Created by potrace 1.16, written by Peter Selinger 2001-2019
</metadata>
<g transform="translate(0.000000,1080.000000) scale(0.100000,-0.100000)"
fill="#000000" stroke="none">
<path d="M0 5400 l0 -5400 5400 1 5400 1 -1 5399 0 5399 -5400 0 -5399 0 0
-5400z m5397 303 c-2 -32 -3 -6 -3 57 0 63 1 89 3 58 2 -32 2 -84 0 -115z m20
5 c-2 -29 -3 -6 -3 52 0 58 1 81 3 53 2 -29 2 -77 0 -105z m-40 5 c-2 -27 -3
-5 -3 47 0 52 1 74 3 48 2 -27 2 -69 0 -95z m60 5 c-2 -24 -4 -5 -4 42 0 47 2
66 4 43 2 -24 2 -62 0 -85z m-80 5 c-2 -21 -4 -4 -4 37 0 41 2 58 4 38 2 -21
2 -55 0 -75z m100 5 c-2 -18 -4 -4 -4 32 0 36 2 50 4 33 2 -18 2 -48 0 -65z
m-120 5 c-2 -16 -4 -3 -4 27 0 30 2 43 4 28 2 -16 2 -40 0 -55z m140 5 c-2
-13 -4 -3 -4 22 0 25 2 35 4 23 2 -13 2 -33 0 -45z m-180 20 c-3 -7 -5 -2 -5
12 0 14 2 19 5 13 2 -7 2 -19 0 -25z m20 -15 c-3 -10 -5 -2 -5 17 0 19 2 27 5
18 2 -10 2 -26 0 -35z m180 5 c-3 -7 -5 -2 -5 12 0 14 2 19 5 13 2 -7 2 -19 0
-25z m-220 -10 c-3 -7 -5 -2 -5 12 0 14 2 19 5 13 2 -7 2 -19 0 -25z m240 -10
c-3 -8 -6 -5 -6 6 -1 11 2 17 5 13 3 -3 4 -12 1 -19z m-220 -10 c-3 -8 -6 -5
-6 6 -1 11 2 17 5 13 3 -3 4 -12 1 -19z m200 -10 c-3 -8 -6 -5 -6 6 -1 11 2
17 5 13 3 -3 4 -12 1 -19z m-180 -10 c-3 -8 -6 -5 -6 6 -1 11 2 17 5 13 3 -3
4 -12 1 -19z m160 -10 c-3 -8 -6 -5 -6 6 -1 11 2 17 5 13 3 -3 4 -12 1 -19z
m-140 -10 c-3 -8 -6 -5 -6 6 -1 11 2 17 5 13 3 -3 4 -12 1 -19z m120 -10 c-3
-8 -6 -5 -6 6 -1 11 2 17 5 13 3 -3 4 -12 1 -19z m-100 -10 c-3 -8 -6 -5 -6 6
-1 11 2 17 5 13 3 -3 4 -12 1 -19z m-200 -195 c-2 -37 -3 -9 -3 62 0 72 1 102
3 68 2 -34 2 -93 0 -130z m480 5 c-2 -35 -3 -7 -3 62 0 69 1 97 3 63 2 -35 2
-91 0 -125z m-460 5 c-2 -32 -3 -6 -3 57 0 63 1 89 3 58 2 -32 2 -84 0 -115z
m480 -20 c-2 -37 -3 -9 -3 62 0 72 1 102 3 68 2 -34 2 -93 0 -130z m-520 -10
c-2 -37 -3 -9 -3 62 0 72 1 102 3 68 2 -34 2 -93 0 -130z m480 35 c-2 -29 -3
-6 -3 52 0 58 1 81 3 53 2 -29 2 -77 0 -105z m-420 5 c-2 -27 -3 -5 -3 47 0
52 1 74 3 48 2 -27 2 -69 0 -95z m480 -50 c-2 -37 -3 -9 -3 62 0 72 1 102 3
68 2 -34 2 -93 0 -130z m-560 -10 c-2 -37 -3 -9 -3 62 0 72 1 102 3 68 2 -34
2 -93 0 -130z m440 165 c-3 -8 -6 -5 -6 6 -1 11 2 17 5 13 3 -3 4 -12 1 -19z
m40 -100 c-2 -24 -4 -5 -4 42 0 47 2 66 4 43 2 -24 2 -62 0 -85z m-380 5 c-2
-21 -4 -4 -4 37 0 41 2 58 4 38 2 -21 2 -55 0 -75z m40 85 c-3 -8 -6 -5 -6 6
-1 11 2 17 5 13 3 -3 4 -12 1 -19z m440 -160 c-2 -35 -3 -7 -3 62 0 69 1 97 3
63 2 -35 2 -91 0 -125z m-600 -15 c-2 -37 -3 -9 -3 62 0 72 1 102 3 68 2 -34
2 -93 0 -130z m440 165 c-3 -8 -6 -5 -6 6 -1 11 2 17 5 13 3 -3 4 -12 1 -19z
m40 -70 c-2 -18 -4 -4 -4 32 0 36 2 50 4 33 2 -18 2 -48 0 -65z m-340 5 c-2
-16 -4 -3 -4 27 0 30 2 43 4 28 2 -16 2 -40 0 -55z m40 55 c-3 -8 -6 -5 -6 6
-1 11 2 17 5 13 3 -3 4 -12 1 -19z m440 -145 c-2 -32 -3 -6 -3 57 0 63 1 89 3
58 2 -32 2 -84 0 -115z m-640 -25 c-2 -35 -3 -7 -3 62 0 69 1 97 3 63 2 -35 2
-91 0 -125z m440 160 c-3 -8 -6 -5 -6 6 -1 11 2 17 5 13 3 -3 4 -12 1 -19z
m40 -40 c-2 -13 -4 -3 -4 22 0 25 2 35 4 23 2 -13 2 -33 0 -45z m-300 5 c-3
-10 -5 -2 -5 17 0 19 2 27 5 18 2 -10 2 -26 0 -35z m480 -90 c-2 -27 -3 -5 -3
47 0 52 1 74 3 48 2 -27 2 -69 0 -95z m-680 -25 c-2 -29 -3 -6 -3 52 0 58 1
81 3 53 2 -29 2 -77 0 -105z m480 120 c-3 -7 -5 -2 -5 12 0 14 2 19 5 13 2 -7
2 -19 0 -25z m220 -85 c-2 -21 -4 -4 -4 37 0 41 2 58 4 38 2 -21 2 -55 0 -75z
m-720 -25 c-2 -24 -4 -5 -4 42 0 47 2 66 4 43 2 -24 2 -62 0 -85z m740 35 c-2
-16 -4 -3 -4 27 0 30 2 43 4 28 2 -16 2 -40 0 -55z m-760 -30 c-2 -16 -4 -3
-4 27 0 30 2 43 4 28 2 -16 2 -40 0 -55z m780 35 c-3 -7 -5 -2 -5 12 0 14 2
19 5 13 2 -7 2 -19 0 -25z m-800 -25 c-3 -10 -5 -2 -5 17 0 19 2 27 5 18 2
-10 2 -26 0 -35z m820 5 c-3 -7 -5 -2 -5 12 0 14 2 19 5 13 2 -7 2 -19 0 -25z
m-840 -25 c-3 -10 -5 -2 -5 17 0 19 2 27 5 18 2 -10 2 -26 0 -35z m420 -1965
c-1 -370 -2 -68 -2 672 0 740 1 1042 2 673 2 -370 2 -976 0 -1345z m20 4 c-1
-367 -2 -66 -2 668 0 734 1 1035 2 667 2 -367 2 -967 0 -1335z m-40 21 c-1
-362 -2 -66 -2 657 0 723 1 1019 2 658 2 -362 2 -954 0 -1315z m420 1945 c-3
-8 -6 -5 -6 6 -1 11 2 17 5 13 3 -3 4 -12 1 -19z m-360 -1940 c-1 -359 -2 -66
-2 652 0 718 1 1011 2 653 2 -359 2 -947 0 -1305z m-80 20 c-1 -354 -2 -65 -2
642 0 707 1 996 2 643 2 -354 2 -932 0 -1285z m-360 1890 c-3 -8 -6 -5 -6 6
-1 11 2 17 5 13 3 -3 4 -12 1 -19z m460 -1885 c-1 -351 -2 -64 -2 637 0 701 1
988 2 638 2 -351 2 -925 0 -1275z m-120 1875 c-3 -8 -6 -5 -6 6 -1 11 2 17 5
13 3 -3 4 -12 1 -19z m140 -10 c-3 -8 -6 -5 -6 6 -1 11 2 17 5 13 3 -3 4 -12
1 -19z m-340 -10 c-3 -8 -6 -5 -6 6 -1 11 2 17 5 13 3 -3 4 -12 1 -19z m180 0
c-3 -8 -6 -5 -6 6 -1 11 2 17 5 13 3 -3 4 -12 1 -19z m180 -10 c-3 -8 -6 -5
-6 6 -1 11 2 17 5 13 3 -3 4 -12 1 -19z m-380 -10 c-3 -8 -6 -5 -6 6 -1 11 2
17 5 13 3 -3 4 -12 1 -19z m180 0 c-3 -8 -6 -5 -6 6 -1 11 2 17 5 13 3 -3 4
-12 1 -19z m40 -1826 c-1 -339 -2 -61 -2 618 0 679 1 957 2 617 2 -339 2 -895
0 -1235z m140 6 c-1 -337 -2 -62 -2 612 0 674 1 949 2 613 2 -337 2 -889 0
-1225z m40 1810 c-3 -8 -6 -5 -6 6 -1 11 2 17 5 13 3 -3 4 -12 1 -19z m-420
-10 c-3 -8 -6 -5 -6 6 -1 11 2 17 5 13 3 -3 4 -12 1 -19z m180 0 c-3 -8 -6 -5
-6 6 -1 11 2 17 5 13 3 -3 4 -12 1 -19z m40 -1780 c-1 -332 -2 -61 -2 602 0
663 1 934 2 603 2 -332 2 -874 0 -1205z m180 5 c-1 -329 -2 -60 -2 597 0 657
1 926 2 598 2 -329 2 -867 0 -1195z m40 1765 c-3 -8 -6 -5 -6 6 -1 11 2 17 5
13 3 -3 4 -12 1 -19z m-280 -10 c-3 -8 -6 -5 -6 6 -1 11 2 17 5 13 3 -3 4 -12
1 -19z m40 -1751 c-1 -325 -2 -59 -2 593 0 652 1 918 2 592 2 -325 2 -859 0
-1185z m220 5 c-1 -323 -2 -58 -2 588 0 646 1 911 2 587 2 -323 2 -851 0
-1175z m40 1736 c-3 -8 -6 -5 -6 6 -1 11 2 17 5 13 3 -3 4 -12 1 -19z m-320
-10 c-3 -8 -6 -5 -6 6 -1 11 2 17 5 13 3 -3 4 -12 1 -19z m40 -1736 c-1 -323
-2 -58 -2 588 0 646 1 911 2 587 2 -323 2 -851 0 -1175z m260 5 c-1 -320 -2
-58 -2 583 0 641 1 903 2 582 2 -320 2 -844 0 -1165z m40 1721 c-3 -8 -6 -5
-6 6 -1 11 2 17 5 13 3 -3 4 -12 1 -19z m-360 -10 c-3 -8 -6 -5 -6 6 -1 11 2
17 5 13 3 -3 4 -12 1 -19z m40 -1661 c-1 -309 -2 -56 -2 563 0 619 1 872 2
562 2 -309 2 -815 0 -1125z m660 1561 c-2 -24 -4 -5 -4 42 0 47 2 66 4 43 2
-24 2 -62 0 -85z m-360 -1555 c-1 -307 -2 -56 -2 557 0 613 1 864 2 558 2
-307 2 -809 0 -1115z m40 1645 c-3 -8 -6 -5 -6 6 -1 11 2 17 5 13 3 -3 4 -12
1 -19z m-360 -1625 c-1 -302 -2 -55 -2 547 0 602 1 849 2 548 2 -302 2 -794 0
-1095z m660 1545 c-2 -18 -4 -4 -4 32 0 36 2 50 4 33 2 -18 2 -48 0 -65z m40
-60 c-2 -29 -3 -6 -3 52 0 58 1 81 3 53 2 -29 2 -77 0 -105z m-360 -1480 c-1
-299 -2 -55 -2 542 0 597 1 841 2 543 2 -299 2 -787 0 -1085z m-360 5 c-1
-296 -2 -54 -2 537 0 591 1 833 2 538 2 -296 2 -780 0 -1075z m620 1575 c-3
-7 -5 -2 -5 12 0 14 2 19 5 13 2 -7 2 -19 0 -25z m40 -30 c-2 -13 -4 -3 -4 22
0 25 2 35 4 23 2 -13 2 -33 0 -45z m80 -75 c-2 -27 -3 -5 -3 47 0 52 1 74 3
48 2 -27 2 -69 0 -95z m20 115 c-3 -8 -6 -5 -6 6 -1 11 2 17 5 13 3 -3 4 -12
1 -19z m-380 -1581 c-1 -292 -2 -53 -2 533 0 586 1 825 2 532 2 -292 2 -772 0
-1065z m260 1551 c-3 -7 -5 -2 -5 12 0 14 2 19 5 13 2 -7 2 -19 0 -25z m140
10 c-3 -8 -6 -5 -6 6 -1 11 2 17 5 13 3 -3 4 -12 1 -19z m-800 -1540 c-1 -288
-2 -55 -2 517 0 572 1 807 2 523 2 -284 2 -752 0 -1040z m420 4 c-1 -284 -2
-51 -2 518 0 569 1 802 2 517 2 -284 2 -750 0 -1035z m360 1416 c-2 -24 -4 -5
-4 42 0 47 2 66 4 43 2 -24 2 -62 0 -85z m-1060 80 c-3 -7 -5 -2 -5 12 0 14 2
19 5 13 2 -7 2 -19 0 -25z m260 -1481 c-1 -276 -2 -47 -2 508 0 556 1 781 2
502 2 -280 2 -734 0 -1010z m460 11 c-1 -277 -2 -51 -2 502 0 553 1 779 2 503
2 -277 2 -729 0 -1005z m360 1370 c-2 -24 -4 -5 -4 42 0 47 2 66 4 43 2 -24 2
-62 0 -85z m-840 -1365 c-1 -274 -2 -53 -2 492 0 545 1 769 2 498 2 -270 2
-716 0 -990z m500 5 c-1 -271 -2 -50 -2 492 0 542 1 763 2 493 2 -271 2 -715
0 -985z m-720 1440 c-3 -8 -6 -5 -6 6 -1 11 2 17 5 13 3 -3 4 -12 1 -19z
m1080 -100 c-2 -24 -4 -5 -4 42 0 47 2 66 4 43 2 -24 2 -62 0 -85z m-1140 90
c-3 -8 -6 -5 -6 6 -1 11 2 17 5 13 3 -3 4 -12 1 -19z m260 -1410 c-1 -266 -2
-51 -2 477 0 528 1 745 2 483 2 -262 2 -694 0 -960z m540 5 c-1 -263 -2 -48
-2 477 0 525 1 740 2 478 2 -263 2 -693 0 -955z m200 1405 c-3 -8 -6 -5 -6 6
-1 11 2 17 5 13 3 -3 4 -12 1 -19z m-960 -10 c-3 -8 -6 -5 -6 6 -1 11 2 17 5
13 3 -3 4 -12 1 -19z m200 -1390 c-1 -260 -2 -48 -2 472 0 520 1 732 2 473 2
-260 2 -686 0 -945z m920 1260 c-2 -29 -3 -6 -3 52 0 58 1 81 3 53 2 -29 2
-77 0 -105z m20 130 c-3 -8 -6 -5 -6 6 -1 11 2 17 5 13 3 -3 4 -12 1 -19z
m-360 -1385 c-1 -258 -2 -47 -2 467 0 514 1 725 2 468 2 -258 2 -678 0 -935z
m20 29 c-1 -251 -2 -45 -2 458 0 503 1 709 2 457 2 -251 2 -663 0 -915z m180
1346 c-3 -8 -6 -5 -6 6 -1 11 2 17 5 13 3 -3 4 -12 1 -19z m-1000 -10 c-3 -8
-6 -5 -6 6 -1 11 2 17 5 13 3 -3 4 -12 1 -19z m1180 0 c-3 -8 -6 -5 -6 6 -1
11 2 17 5 13 3 -3 4 -12 1 -19z m-1200 -20 c-3 -7 -5 -2 -5 12 0 14 2 19 5 13
2 -7 2 -19 0 -25z m860 -1305 c-1 -247 -2 -45 -2 447 0 492 1 694 2 448 2
-247 2 -649 0 -895z m180 1315 c-3 -8 -6 -5 -6 6 -1 11 2 17 5 13 3 -3 4 -12
1 -19z m140 -110 c-2 -24 -4 -5 -4 42 0 47 2 66 4 43 2 -24 2 -62 0 -85z
m-980 -1215 c-1 -246 -2 -48 -2 442 0 490 1 691 2 448 2 -243 2 -643 0 -890z
m20 -15 c-1 -249 -2 -48 -2 447 0 495 1 699 2 453 2 -245 2 -650 0 -900z m660
1320 c-3 -8 -6 -5 -6 6 -1 11 2 17 5 13 3 -3 4 -12 1 -19z m-720 -10 c-3 -8
-6 -5 -6 6 -1 11 2 17 5 13 3 -3 4 -12 1 -19z m1040 -115 c-2 -27 -3 -5 -3 47
0 52 1 74 3 48 2 -27 2 -69 0 -95z m-1260 105 c-3 -8 -6 -5 -6 6 -1 11 2 17 5
13 3 -3 4 -12 1 -19z m960 0 c-3 -8 -6 -5 -6 6 -1 11 2 17 5 13 3 -3 4 -12 1
-19z m-720 -1266 c-1 -235 -2 -42 -2 428 0 470 1 663 2 427 2 -235 2 -619 0
-855z m1040 1156 c-2 -24 -4 -5 -4 42 0 47 2 66 4 43 2 -24 2 -62 0 -85z
m-1300 90 c-3 -8 -6 -5 -6 6 -1 11 2 17 5 13 3 -3 4 -12 1 -19z m960 -1241
c-1 -232 -2 -42 -2 423 0 465 1 655 2 422 2 -232 2 -612 0 -845z m-720 5 c-1
-229 -2 -41 -2 418 0 459 1 647 2 417 2 -229 2 -605 0 -835z m1080 1126 c-2
-24 -4 -5 -4 42 0 47 2 66 4 43 2 -24 2 -62 0 -85z m20 100 c-3 -8 -6 -5 -6 6
-1 11 2 17 5 13 3 -3 4 -12 1 -19z m-360 -1220 c-1 -227 -2 -42 -2 412 0 454
1 639 2 413 2 -227 2 -599 0 -825z m-960 1200 c-3 -8 -6 -5 -6 6 -1 11 2 17 5
13 3 -3 4 -12 1 -19z m200 -1181 c-1 -221 -2 -40 -2 403 0 443 1 624 2 402 2
-221 2 -583 0 -805z m1140 1181 c-3 -8 -6 -5 -6 6 -1 11 2 17 5 13 3 -3 4 -12
1 -19z m-360 -1175 c-1 -219 -2 -40 -2 397 0 437 1 616 2 398 2 -219 2 -577 0
-795z m200 1165 c-3 -8 -6 -5 -6 6 -1 11 2 17 5 13 3 -3 4 -12 1 -19z m-1200
-10 c-3 -8 -6 -5 -6 6 -1 11 2 17 5 13 3 -3 4 -12 1 -19z m200 -1151 c-1 -215
-2 -39 -2 393 0 432 1 608 2 392 2 -215 2 -569 0 -785z m1140 1051 c-2 -24 -4
-5 -4 42 0 47 2 66 4 43 2 -24 2 -62 0 -85z m-1360 80 c-3 -7 -5 -2 -5 12 0
14 2 19 5 13 2 -7 2 -19 0 -25z m1040 -1125 c-1 -214 -2 -39 -2 387 0 426 1
601 2 388 2 -214 2 -562 0 -775z m200 1135 c-3 -8 -6 -5 -6 6 -1 11 2 17 5 13
3 -3 4 -12 1 -19z m-1060 -1100 c-1 -205 -2 -38 -2 372 0 410 1 577 2 373 2
-205 2 -541 0 -745z m20 -16 c-1 -207 -2 -37 -2 378 0 415 1 585 2 377 2 -207
2 -547 0 -755z m1180 991 c-2 -27 -3 -5 -3 47 0 52 1 74 3 48 2 -27 2 -69 0
-95z m-320 -985 c-1 -205 -2 -38 -2 372 0 410 1 577 2 373 2 -205 2 -541 0
-745z m20 15 c-1 -203 -2 -37 -2 367 0 404 1 570 2 368 2 -203 2 -533 0 -735z
m320 965 c-2 -24 -4 -5 -4 42 0 47 2 66 4 43 2 -24 2 -62 0 -85z m-1460 90
c-3 -8 -6 -5 -6 6 -1 11 2 17 5 13 3 -3 4 -12 1 -19z m20 -10 c-3 -7 -5 -2 -5
12 0 14 2 19 5 13 2 -7 2 -19 0 -25z m180 0 c-3 -8 -6 -5 -6 6 -1 11 2 17 5
13 3 -3 4 -12 1 -19z m1280 -115 c-2 -27 -3 -5 -3 47 0 52 1 74 3 48 2 -27 2
-69 0 -95z m20 115 c-3 -8 -6 -5 -6 6 -1 11 2 17 5 13 3 -3 4 -12 1 -19z
m-1520 -10 c-3 -8 -6 -5 -6 6 -1 11 2 17 5 13 3 -3 4 -12 1 -19z m1200 0 c-3
-8 -6 -5 -6 6 -1 11 2 17 5 13 3 -3 4 -12 1 -19z m-960 -1025 c-1 -192 -2 -35
-2 347 0 382 1 539 2 348 2 -192 2 -504 0 -695z m1300 1015 c-3 -8 -6 -5 -6 6
-1 11 2 17 5 13 3 -3 4 -12 1 -19z m-360 -1010 c-1 -189 -2 -35 -2 342 0 377
1 531 2 343 2 -189 2 -497 0 -685z m-1160 990 c-3 -8 -6 -5 -6 6 -1 11 2 17 5
13 3 -3 4 -12 1 -19z m180 -970 c-1 -183 -2 -34 -2 332 0 366 1 515 2 333 2
-183 2 -483 0 -665z m20 -16 c-1 -185 -2 -33 -2 338 0 371 1 523 2 337 2 -185
2 -489 0 -675z m1300 886 c-2 -24 -4 -5 -4 42 0 47 2 66 4 43 2 -24 2 -62 0
-85z m-1540 80 c-3 -7 -5 -2 -5 12 0 14 2 19 5 13 2 -7 2 -19 0 -25z m1220
-960 c-1 -183 -2 -34 -2 332 0 366 1 515 2 333 2 -183 2 -483 0 -665z m20 15
c-1 -181 -2 -33 -2 327 0 360 1 508 2 328 2 -181 2 -475 0 -655z m180 955 c-3
-8 -6 -5 -6 6 -1 11 2 17 5 13 3 -3 4 -12 1 -19z m-1400 -10 c-3 -8 -6 -5 -6
6 -1 11 2 17 5 13 3 -3 4 -12 1 -19z m1540 -100 c-2 -24 -4 -5 -4 42 0 47 2
66 4 43 2 -24 2 -62 0 -85z m-120 90 c-3 -8 -6 -5 -6 6 -1 11 2 17 5 13 3 -3
4 -12 1 -19z m-1260 -920 c-1 -172 -2 -32 -2 312 0 344 1 484 2 313 2 -172 2
-454 0 -625z m20 0 c-1 -172 -2 -32 -2 312 0 344 1 484 2 313 2 -172 2 -454 0
-625z m1380 810 c-2 -24 -4 -5 -4 42 0 47 2 66 4 43 2 -24 2 -62 0 -85z
m-1620 80 c-3 -7 -5 -2 -5 12 0 14 2 19 5 13 2 -7 2 -19 0 -25z m20 0 c-3 -7
-5 -2 -5 12 0 14 2 19 5 13 2 -7 2 -19 0 -25z m1280 -885 c-1 -170 -2 -31 -2
307 0 338 1 477 2 308 2 -170 2 -446 0 -615z m20 0 c-1 -170 -2 -31 -2 307 0
338 1 477 2 308 2 -170 2 -446 0 -615z m-1120 885 c-3 -8 -6 -5 -6 6 -1 11 2
17 5 13 3 -3 4 -12 1 -19z m1440 -115 c-2 -27 -3 -5 -3 47 0 52 1 74 3 48 2
-27 2 -69 0 -95z m-1660 105 c-3 -8 -6 -5 -6 6 -1 11 2 17 5 13 3 -3 4 -12 1
-19z m1360 0 c-3 -8 -6 -5 -6 6 -1 11 2 17 5 13 3 -3 4 -12 1 -19z m340 -10
c-3 -8 -6 -5 -6 6 -1 11 2 17 5 13 3 -3 4 -12 1 -19z m-1720 -10 c-3 -8 -6 -5
-6 6 -1 11 2 17 5 13 3 -3 4 -12 1 -19z m40 -10 c-3 -8 -6 -5 -6 6 -1 11 2 17
5 13 3 -3 4 -12 1 -19z m200 -835 c-1 -159 -2 -29 -2 287 0 316 1 446 2 288 2
-159 2 -417 0 -575z m1460 735 c-2 -24 -4 -5 -4 42 0 47 2 66 4 43 2 -24 2
-62 0 -85z m-320 -731 c-1 -155 -2 -28 -2 283 0 311 1 438 2 282 2 -155 2
-409 0 -565z m200 821 c-3 -8 -6 -5 -6 6 -1 11 2 17 5 13 3 -3 4 -12 1 -19z
m-1360 -800 c-1 -150 -2 -28 -2 272 0 300 1 422 2 273 2 -150 2 -396 0 -545z
m1500 675 c-2 -27 -3 -5 -3 47 0 52 1 74 3 48 2 -27 2 -69 0 -95z m-320 -670
c-1 -148 -2 -27 -2 267 0 294 1 415 2 268 2 -148 2 -388 0 -535z m-1220 765
c-3 -8 -6 -5 -6 6 -1 11 2 17 5 13 3 -3 4 -12 1 -19z m20 -760 c-1 -145 -2
-27 -2 262 0 289 1 407 2 263 2 -145 2 -381 0 -525z m1540 630 c-2 -29 -3 -6
-3 52 0 58 1 81 3 53 2 -29 2 -77 0 -105z m-320 -626 c-1 -141 -2 -25 -2 258
0 283 1 399 2 257 2 -141 2 -373 0 -515z m20 746 c-3 -8 -6 -5 -6 6 -1 11 2
17 5 13 3 -3 4 -12 1 -19z m-1280 -10 c-3 -8 -6 -5 -6 6 -1 11 2 17 5 13 3 -3
4 -12 1 -19z m1600 -115 c-2 -27 -3 -5 -3 47 0 52 1 74 3 48 2 -27 2 -69 0
-95z m-1820 105 c-3 -8 -6 -5 -6 6 -1 11 2 17 5 13 3 -3 4 -12 1 -19z m1520 0
c-3 -8 -6 -5 -6 6 -1 11 2 17 5 13 3 -3 4 -12 1 -19z m-1480 -10 c-3 -8 -6 -5
-6 6 -1 11 2 17 5 13 3 -3 4 -12 1 -19z m200 -715 c-1 -137 -2 -25 -2 247 0
272 1 384 2 248 2 -137 2 -359 0 -495z m1620 715 c-3 -8 -6 -5 -6 6 -1 11 2
17 5 13 3 -3 4 -12 1 -19z m-1880 -10 c-3 -8 -6 -5 -6 6 -1 11 2 17 5 13 3 -3
4 -12 1 -19z m1520 -700 c-1 -134 -2 -25 -2 242 0 267 1 376 2 243 2 -134 2
-352 0 -485z m200 700 c-3 -8 -6 -5 -6 6 -1 11 2 17 5 13 3 -3 4 -12 1 -19z
m-1680 -10 c-3 -8 -6 -5 -6 6 -1 11 2 17 5 13 3 -3 4 -12 1 -19z m200 -700
c-1 -134 -2 -25 -2 242 0 267 1 376 2 243 2 -134 2 -352 0 -485z m1620 585
c-2 -27 -3 -5 -3 47 0 52 1 74 3 48 2 -27 2 -69 0 -95z m80 -75 c-1 -40 -3 -8
-3 72 0 80 2 112 3 73 2 -40 2 -106 0 -145z m-400 -506 c-1 -130 -2 -23 -2
238 0 261 1 368 2 237 2 -130 2 -344 0 -475z m200 686 c-3 -8 -6 -5 -6 6 -1
11 2 17 5 13 3 -3 4 -12 1 -19z m-1520 -651 c-1 -122 -2 -22 -2 223 0 245 1
345 2 222 2 -122 2 -322 0 -445z m1660 526 c-2 -27 -3 -5 -3 47 0 52 1 74 3
48 2 -27 2 -69 0 -95z m40 -75 c-1 -40 -3 -8 -3 72 0 80 2 112 3 73 2 -40 2
-106 0 -145z m-2100 180 c-3 -8 -6 -5 -6 6 -1 11 2 17 5 13 3 -3 4 -12 1 -19z
m1740 -625 c-1 -120 -2 -22 -2 217 0 239 1 337 2 218 2 -120 2 -316 0 -435z
m400 430 c-1 -43 -3 -10 -3 72 0 83 2 118 3 78 2 -40 2 -107 0 -150z m-1760
-426 c-1 -116 -2 -21 -2 213 0 234 1 329 2 212 2 -116 2 -308 0 -425z m1700
481 c-2 -29 -3 -6 -3 52 0 58 1 81 3 53 2 -29 2 -77 0 -105z m-2100 -70 c-1
-40 -3 -8 -3 72 0 80 2 112 3 73 2 -40 2 -106 0 -145z m40 45 c-2 -32 -3 -6
-3 57 0 63 1 89 3 58 2 -32 2 -84 0 -115z m140 135 c-3 -7 -5 -2 -5 12 0 14 2
19 5 13 2 -7 2 -19 0 -25z m1600 -586 c-1 -114 -2 -20 -2 208 0 228 1 322 2
207 2 -114 2 -300 0 -415z m400 401 c-1 -43 -3 -10 -3 72 0 83 2 118 3 78 2
-40 2 -107 0 -150z m-2200 -25 c-1 -46 -3 -11 -3 77 0 88 2 125 3 83 2 -42 2
-114 0 -160z m220 210 c-3 -8 -6 -5 -6 6 -1 11 2 17 5 13 3 -3 4 -12 1 -19z
m-180 -170 c-2 -35 -3 -7 -3 62 0 69 1 97 3 63 2 -35 2 -91 0 -125z m140 150
c-3 -7 -5 -2 -5 12 0 14 2 19 5 13 2 -7 2 -19 0 -25z m1820 10 c-3 -8 -6 -5
-6 6 -1 11 2 17 5 13 3 -3 4 -12 1 -19z m220 -210 c-1 -46 -3 -11 -3 77 0 88
2 125 3 83 2 -42 2 -114 0 -160z m-1840 -350 c-1 -106 -2 -20 -2 192 0 212 1
298 2 193 2 -106 2 -280 0 -385z m20 -15 c-1 -109 -2 -20 -2 197 0 217 1 306
2 198 2 -109 2 -287 0 -395z m-320 425 c-2 -29 -3 -6 -3 52 0 58 1 81 3 53 2
-29 2 -77 0 -105z m80 120 c-3 -7 -5 -2 -5 12 0 14 2 19 5 13 2 -7 2 -19 0
-25z m1660 -540 c-1 -106 -2 -20 -2 192 0 212 1 298 2 193 2 -106 2 -280 0
-385z m20 15 c-1 -104 -2 -19 -2 187 0 206 1 291 2 188 2 -104 2 -272 0 -375z
m-1860 330 c-1 -43 -3 -10 -3 72 0 83 2 118 3 78 2 -40 2 -107 0 -150z m120
115 c-2 -18 -4 -4 -4 32 0 36 2 50 4 33 2 -18 2 -48 0 -65z m2140 -120 c-1
-40 -3 -8 -3 72 0 80 2 112 3 73 2 -40 2 -106 0 -145z m-2280 5 c-2 -38 -3 -7
-3 67 0 74 1 105 3 68 2 -38 2 -98 0 -135z m400 -315 c-1 -95 -3 -18 -3 172 0
190 2 267 3 173 2 -95 2 -251 0 -345z m-240 455 c-3 -10 -5 -2 -5 17 0 19 2
27 5 18 2 -10 2 -26 0 -35z m20 15 c-3 -7 -5 -2 -5 12 0 14 2 19 5 13 2 -7 2
-19 0 -25z m1720 -465 c-1 -93 -3 -17 -3 167 0 184 2 260 3 168 2 -93 2 -243
0 -335z m400 315 c-2 -35 -3 -7 -3 62 0 69 1 97 3 63 2 -35 2 -91 0 -125z
m-2320 0 c-2 -29 -3 -6 -3 52 0 58 1 81 3 53 2 -29 2 -77 0 -105z m400 -315
c-1 -87 -3 -16 -3 157 0 173 2 244 3 158 2 -87 2 -229 0 -315z m1540 5 c-1
-84 -3 -16 -3 152 0 168 2 236 3 153 2 -84 2 -222 0 -305z m400 315 c-2 -27
-3 -5 -3 47 0 52 1 74 3 48 2 -27 2 -69 0 -95z m-2360 5 c-2 -24 -4 -5 -4 42
0 47 2 66 4 43 2 -24 2 -62 0 -85z m400 -315 c-1 -82 -3 -15 -3 147 0 162 2
229 3 148 2 -82 2 -214 0 -295z m1580 5 c-1 -79 -3 -15 -3 142 0 157 2 221 3
143 2 -79 2 -207 0 -285z m400 315 c-2 -21 -4 -4 -4 37 0 41 2 58 4 38 2 -21
2 -55 0 -75z m-2180 75 c-3 -8 -6 -5 -6 6 -1 11 2 17 5 13 3 -3 4 -12 1 -19z
m160 0 c-3 -8 -6 -5 -6 6 -1 11 2 17 5 13 3 -3 4 -12 1 -19z m1660 -10 c-3 -8
-6 -5 -6 6 -1 11 2 17 5 13 3 -3 4 -12 1 -19z m160 0 c-3 -8 -6 -5 -6 6 -1 11
2 17 5 13 3 -3 4 -12 1 -19z m-2200 -65 c-2 -16 -4 -3 -4 27 0 30 2 43 4 28 2
-16 2 -40 0 -55z m400 -315 c-1 -73 -3 -14 -3 132 0 146 2 205 3 133 2 -73 2
-193 0 -265z m1620 5 c-1 -71 -3 -13 -3 127 0 140 2 198 3 128 2 -71 2 -185 0
-255z m400 315 c-2 -13 -4 -3 -4 22 0 25 2 35 4 23 2 -13 2 -33 0 -45z m-2440
5 c-3 -10 -5 -2 -5 17 0 19 2 27 5 18 2 -10 2 -26 0 -35z m400 -315 c-1 -68
-3 -13 -3 122 0 135 2 190 3 123 2 -68 2 -178 0 -245z m1660 5 c-1 -65 -3 -12
-3 117 0 129 2 182 3 118 2 -65 2 -171 0 -235z m400 315 c-3 -7 -5 -2 -5 12 0
14 2 19 5 13 2 -7 2 -19 0 -25z m-2080 -325 c-1 -65 -3 -12 -3 117 0 129 2
182 3 118 2 -65 2 -171 0 -235z m1700 5 c-1 -62 -3 -12 -3 112 0 124 2 174 3
113 2 -62 2 -164 0 -225z m-1720 30 c-1 -51 -3 -10 -3 92 0 102 2 143 3 93 2
-51 2 -135 0 -185z m1740 5 c-1 -49 -3 -9 -3 87 0 96 2 136 3 88 2 -49 2 -127
0 -175z m-1780 225 c-3 -8 -6 -5 -6 6 -1 11 2 17 5 13 3 -3 4 -12 1 -19z m20
-220 c-1 -46 -3 -9 -3 82 0 91 2 128 3 83 2 -46 2 -120 0 -165z m1780 5 c-1
-43 -3 -8 -3 77 0 85 2 120 3 78 2 -43 2 -113 0 -155z m20 205 c-3 -8 -6 -5
-6 6 -1 11 2 17 5 13 3 -3 4 -12 1 -19z m-2000 -10 c-3 -8 -6 -5 -6 6 -1 11 2
17 5 13 3 -3 4 -12 1 -19z m160 -175 c-2 -38 -3 -7 -3 67 0 74 1 105 3 68 2
-38 2 -98 0 -135z m1860 5 c-2 -35 -3 -7 -3 62 0 69 1 97 3 63 2 -35 2 -91 0
-125z m160 160 c-3 -8 -6 -5 -6 6 -1 11 2 17 5 13 3 -3 4 -12 1 -19z m-2000
-185 c-2 -38 -3 -7 -3 67 0 74 1 105 3 68 2 -38 2 -98 0 -135z m1820 5 c-2
-35 -3 -7 -3 62 0 69 1 97 3 63 2 -35 2 -91 0 -125z m-1880 15 c-2 -27 -3 -5
-3 47 0 52 1 74 3 48 2 -27 2 -69 0 -95z m1940 5 c-2 -24 -4 -5 -4 42 0 47 2
66 4 43 2 -24 2 -62 0 -85z m-1920 -10 c-2 -24 -4 -5 -4 42 0 47 2 66 4 43 2
-24 2 -62 0 -85z m1900 5 c-2 -21 -4 -4 -4 37 0 41 2 58 4 38 2 -21 2 -55 0
-75z m-1960 30 c-3 -10 -5 -2 -5 17 0 19 2 27 5 18 2 -10 2 -26 0 -35z m2320
25 c-3 -8 -6 -5 -6 6 -1 11 2 17 5 13 3 -3 4 -12 1 -19z m-2620 -10 c-3 -8 -6
-5 -6 6 -1 11 2 17 5 13 3 -3 4 -12 1 -19z m2320 -10 c-3 -7 -5 -2 -5 12 0 14
2 19 5 13 2 -7 2 -19 0 -25z m-2000 -25 c-3 -10 -5 -2 -5 17 0 19 2 27 5 18 2
-10 2 -26 0 -35z m2280 25 c-3 -8 -6 -5 -6 6 -1 11 2 17 5 13 3 -3 4 -12 1
-19z m-2580 -10 c-3 -8 -6 -5 -6 6 -1 11 2 17 5 13 3 -3 4 -12 1 -19z m2280
-10 c-3 -7 -5 -2 -5 12 0 14 2 19 5 13 2 -7 2 -19 0 -25z m280 0 c-3 -8 -6 -5
-6 6 -1 11 2 17 5 13 3 -3 4 -12 1 -19z m-2540 -10 c-3 -8 -6 -5 -6 6 -1 11 2
17 5 13 3 -3 4 -12 1 -19z m2520 -10 c-3 -8 -6 -5 -6 6 -1 11 2 17 5 13 3 -3
4 -12 1 -19z m-2500 -10 c-3 -8 -6 -5 -6 6 -1 11 2 17 5 13 3 -3 4 -12 1 -19z
m2160 -90 c-3 -8 -6 -5 -6 6 -1 11 2 17 5 13 3 -3 4 -12 1 -19z m-1820 -10
c-3 -8 -6 -5 -6 6 -1 11 2 17 5 13 3 -3 4 -12 1 -19z m1800 -10 c-3 -8 -6 -5
-6 6 -1 11 2 17 5 13 3 -3 4 -12 1 -19z m-1780 -10 c-3 -8 -6 -5 -6 6 -1 11 2
17 5 13 3 -3 4 -12 1 -19z m1760 -10 c-3 -8 -6 -5 -6 6 -1 11 2 17 5 13 3 -3
4 -12 1 -19z m-1740 -10 c-3 -8 -6 -5 -6 6 -1 11 2 17 5 13 3 -3 4 -12 1 -19z
m1640 -110 c-3 -8 -6 -5 -6 6 -1 11 2 17 5 13 3 -3 4 -12 1 -19z m-1540 -10
c-3 -8 -6 -5 -6 6 -1 11 2 17 5 13 3 -3 4 -12 1 -19z m1520 -10 c-3 -8 -6 -5
-6 6 -1 11 2 17 5 13 3 -3 4 -12 1 -19z m240 0 c-3 -8 -6 -5 -6 6 -1 11 2 17
5 13 3 -3 4 -12 1 -19z m20 0 c-3 -8 -6 -5 -6 6 -1 11 2 17 5 13 3 -3 4 -12 1
-19z m-2020 -10 c-3 -8 -6 -5 -6 6 -1 11 2 17 5 13 3 -3 4 -12 1 -19z m20 0
c-3 -8 -6 -5 -6 6 -1 11 2 17 5 13 3 -3 4 -12 1 -19z m240 0 c-3 -8 -6 -5 -6
6 -1 11 2 17 5 13 3 -3 4 -12 1 -19z m1720 -10 c-3 -8 -6 -5 -6 6 -1 11 2 17
5 13 3 -3 4 -12 1 -19z m-1940 -10 c-3 -8 -6 -5 -6 6 -1 11 2 17 5 13 3 -3 4
-12 1 -19z m1640 -70 c-3 -8 -6 -5 -6 6 -1 11 2 17 5 13 3 -3 4 -12 1 -19z
m-1340 -10 c-3 -8 -6 -5 -6 6 -1 11 2 17 5 13 3 -3 4 -12 1 -19z m1540 -30
c-3 -8 -6 -5 -6 6 -1 11 2 17 5 13 3 -3 4 -12 1 -19z m20 0 c-3 -8 -6 -5 -6 6
-1 11 2 17 5 13 3 -3 4 -12 1 -19z m-1780 -10 c-3 -8 -6 -5 -6 6 -1 11 2 17 5
13 3 -3 4 -12 1 -19z m20 0 c-3 -8 -6 -5 -6 6 -1 11 2 17 5 13 3 -3 4 -12 1
-19z m1480 -30 c-3 -8 -6 -5 -6 6 -1 11 2 17 5 13 3 -3 4 -12 1 -19z m-1220
-10 c-3 -8 -6 -5 -6 6 -1 11 2 17 5 13 3 -3 4 -12 1 -19z m1200 -10 c-3 -8 -6
-5 -6 6 -1 11 2 17 5 13 3 -3 4 -12 1 -19z m-1180 -10 c-3 -8 -6 -5 -6 6 -1
11 2 17 5 13 3 -3 4 -12 1 -19z m1380 -30 c-3 -8 -6 -5 -6 6 -1 11 2 17 5 13
3 -3 4 -12 1 -19z m-1580 -10 c-3 -8 -6 -5 -6 6 -1 11 2 17 5 13 3 -3 4 -12 1
-19z m1280 -90 c-3 -8 -6 -5 -6 6 -1 11 2 17 5 13 3 -3 4 -12 1 -19z m220 0
c-3 -8 -6 -5 -6 6 -1 11 2 17 5 13 3 -3 4 -12 1 -19z m-1420 -10 c-3 -8 -6 -5
-6 6 -1 11 2 17 5 13 3 -3 4 -12 1 -19z m220 0 c-3 -8 -6 -5 -6 6 -1 11 2 17
5 13 3 -3 4 -12 1 -19z m960 -10 c-3 -8 -6 -5 -6 6 -1 11 2 17 5 13 3 -3 4
-12 1 -19z m-940 -10 c-3 -8 -6 -5 -6 6 -1 11 2 17 5 13 3 -3 4 -12 1 -19z
m1100 -90 c-3 -8 -6 -5 -6 6 -1 11 2 17 5 13 3 -3 4 -12 1 -19z m-1260 -10
c-3 -8 -6 -5 -6 6 -1 11 2 17 5 13 3 -3 4 -12 1 -19z m1020 -10 c-3 -8 -6 -5
-6 6 -1 11 2 17 5 13 3 -3 4 -12 1 -19z m220 0 c-3 -8 -6 -5 -6 6 -1 11 2 17
5 13 3 -3 4 -12 1 -19z m-1220 -10 c-3 -8 -6 -5 -6 6 -1 11 2 17 5 13 3 -3 4
-12 1 -19z m220 0 c-3 -8 -6 -5 -6 6 -1 11 2 17 5 13 3 -3 4 -12 1 -19z m980
-30 c-3 -8 -6 -5 -6 6 -1 11 2 17 5 13 3 -3 4 -12 1 -19z m-240 -20 c-3 -8 -6
-5 -6 6 -1 11 2 17 5 13 3 -3 4 -12 1 -19z m-700 -10 c-3 -8 -6 -5 -6 6 -1 11
2 17 5 13 3 -3 4 -12 1 -19z m900 -30 c-3 -8 -6 -5 -6 6 -1 11 2 17 5 13 3 -3
4 -12 1 -19z m-1100 -10 c-3 -8 -6 -5 -6 6 -1 11 2 17 5 13 3 -3 4 -12 1 -19z
m820 -70 c-3 -8 -6 -5 -6 6 -1 11 2 17 5 13 3 -3 4 -12 1 -19z m-540 -10 c-3
-8 -6 -5 -6 6 -1 11 2 17 5 13 3 -3 4 -12 1 -19z m520 -30 c-3 -8 -6 -5 -6 6
-1 11 2 17 5 13 3 -3 4 -12 1 -19z m220 0 c-3 -8 -6 -5 -6 6 -1 11 2 17 5 13
3 -3 4 -12 1 -19z m-940 -10 c-3 -8 -6 -5 -6 6 -1 11 2 17 5 13 3 -3 4 -12 1
-19z m220 0 c-3 -8 -6 -5 -6 6 -1 11 2 17 5 13 3 -3 4 -12 1 -19z m660 -70
c-3 -8 -6 -5 -6 6 -1 11 2 17 5 13 3 -3 4 -12 1 -19z m-820 -10 c-3 -8 -6 -5
-6 6 -1 11 2 17 5 13 3 -3 4 -12 1 -19z m760 -90 c-3 -8 -6 -5 -6 6 -1 11 2
17 5 13 3 -3 4 -12 1 -19z m-700 -10 c-3 -8 -6 -5 -6 6 -1 11 2 17 5 13 3 -3
4 -12 1 -19z m660 -90 c-3 -8 -6 -5 -6 6 -1 11 2 17 5 13 3 -3 4 -12 1 -19z
m-620 -10 c-3 -8 -6 -5 -6 6 -1 11 2 17 5 13 3 -3 4 -12 1 -19z m580 -30 c-3
-8 -6 -5 -6 6 -1 11 2 17 5 13 3 -3 4 -12 1 -19z m-540 -10 c-3 -8 -6 -5 -6 6
-1 11 2 17 5 13 3 -3 4 -12 1 -19z m320 -10 c-3 -8 -6 -5 -6 6 -1 11 2 17 5
13 3 -3 4 -12 1 -19z m-100 -10 c-3 -8 -6 -5 -6 6 -1 11 2 17 5 13 3 -3 4 -12
1 -19z m280 -50 c-3 -8 -6 -5 -6 6 -1 11 2 17 5 13 3 -3 4 -12 1 -19z m-460
-10 c-3 -8 -6 -5 -6 6 -1 11 2 17 5 13 3 -3 4 -12 1 -19z m440 -30 c-3 -8 -6
-5 -6 6 -1 11 2 17 5 13 3 -3 4 -12 1 -19z m-420 -10 c-3 -8 -6 -5 -6 6 -1 11
2 17 5 13 3 -3 4 -12 1 -19z m400 -50 c-3 -8 -6 -5 -6 6 -1 11 2 17 5 13 3 -3
4 -12 1 -19z m-380 -10 c-3 -8 -6 -5 -6 6 -1 11 2 17 5 13 3 -3 4 -12 1 -19z
m360 -30 c-3 -8 -6 -5 -6 6 -1 11 2 17 5 13 3 -3 4 -12 1 -19z m-340 -10 c-3
-8 -6 -5 -6 6 -1 11 2 17 5 13 3 -3 4 -12 1 -19z m320 -30 c-3 -8 -6 -5 -6 6
-1 11 2 17 5 13 3 -3 4 -12 1 -19z m-300 -10 c-3 -8 -6 -5 -6 6 -1 11 2 17 5
13 3 -3 4 -12 1 -19z m280 -30 c-3 -8 -6 -5 -6 6 -1 11 2 17 5 13 3 -3 4 -12
1 -19z m-260 -10 c-3 -8 -6 -5 -6 6 -1 11 2 17 5 13 3 -3 4 -12 1 -19z m2260
-1230 c-3 -8 -6 -5 -6 6 -1 11 2 17 5 13 3 -3 4 -12 1 -19z m220 -20 c-3 -8
-6 -5 -6 6 -1 11 2 17 5 13 3 -3 4 -12 1 -19z m-4480 -30 c-3 -8 -6 -5 -6 6
-1 11 2 17 5 13 3 -3 4 -12 1 -19z m20 0 c-3 -8 -6 -5 -6 6 -1 11 2 17 5 13 3
-3 4 -12 1 -19z m4500 -10 c-3 -8 -6 -5 -6 6 -1 11 2 17 5 13 3 -3 4 -12 1
-19z m-4480 -10 c-3 -8 -6 -5 -6 6 -1 11 2 17 5 13 3 -3 4 -12 1 -19z m4140
-10 c-3 -8 -6 -5 -6 6 -1 11 2 17 5 13 3 -3 4 -12 1 -19z m-4420 -30 c-3 -8
-6 -5 -6 6 -1 11 2 17 5 13 3 -3 4 -12 1 -19z m4400 -10 c-3 -8 -6 -5 -6 6 -1
11 2 17 5 13 3 -3 4 -12 1 -19z m-4040 -45 c-3 -10 -5 -4 -5 12 0 17 2 24 5
18 2 -7 2 -21 0 -30z m4020 -75 c-3 -8 -6 -5 -6 6 -1 11 2 17 5 13 3 -3 4 -12
1 -19z m440 0 c-3 -8 -6 -5 -6 6 -1 11 2 17 5 13 3 -3 4 -12 1 -19z m20 0 c-3
-8 -6 -5 -6 6 -1 11 2 17 5 13 3 -3 4 -12 1 -19z m20 0 c-3 -8 -6 -5 -6 6 -1
11 2 17 5 13 3 -3 4 -12 1 -19z m-80 -40 c-3 -8 -6 -5 -6 6 -1 11 2 17 5 13 3
-3 4 -12 1 -19z m-4900 -10 c-3 -8 -6 -5 -6 6 -1 11 2 17 5 13 3 -3 4 -12 1
-19z m20 0 c-3 -8 -6 -5 -6 6 -1 11 2 17 5 13 3 -3 4 -12 1 -19z m20 0 c-3 -8
-6 -5 -6 6 -1 11 2 17 5 13 3 -3 4 -12 1 -19z m20 0 c-3 -8 -6 -5 -6 6 -1 11
2 17 5 13 3 -3 4 -12 1 -19z m20 -30 c-2 -13 -4 -5 -4 17 -1 22 1 32 4 23 2
-10 2 -28 0 -40z m4480 0 c-3 -8 -6 -5 -6 6 -1 11 2 17 5 13 3 -3 4 -12 1 -19z
m20 -20 c-3 -8 -6 -5 -6 6 -1 11 2 17 5 13 3 -3 4 -12 1 -19z m-4120 -10 c-3
-8 -6 -5 -6 6 -1 11 2 17 5 13 3 -3 4 -12 1 -19z m-360 -20 c-3 -8 -6 -5 -6 6
-1 11 2 17 5 13 3 -3 4 -12 1 -19z m20 0 c-3 -8 -6 -5 -6 6 -1 11 2 17 5 13 3
-3 4 -12 1 -19z m320 -20 c-3 -8 -6 -5 -6 6 -1 11 2 17 5 13 3 -3 4 -12 1 -19z
m4220 -10 c-3 -8 -6 -5 -6 6 -1 11 2 17 5 13 3 -3 4 -12 1 -19z m-4340 -50
c-3 -8 -6 -5 -6 6 -1 11 2 17 5 13 3 -3 4 -12 1 -19z m20 0 c-3 -8 -6 -5 -6 6
-1 11 2 17 5 13 3 -3 4 -12 1 -19z"/>
</g>
</svg>
